<?xml version="1.0" encoding="utf-8"?>
<!-- Generator: Adobe Illustrator 25.1.0, SVG Export Plug-In . SVG Version: 6.00 Build 0)  -->
<svg version="1.1" id="Ebene_1" xmlns="http://www.w3.org/2000/svg" xmlns:xlink="http://www.w3.org/1999/xlink" x="0px" y="0px"
	 viewBox="0 0 474 56.9" style="enable-background:new 0 0 474 56.9;" xml:space="preserve">
<style type="text/css">
	.st0{fill:#FFFFFF;}
	.st1{fill:#1979E2;}
</style>
<g>
	<polygon class="st0" points="39.4,0 39.4,42.3 38.9,42.3 10.2,0 0,0 0,55.8 9,55.8 9,13.6 9.6,13.6 38.3,55.8 48.3,55.8 48.3,0 	
		"/>
	<polygon class="st0" points="88,11.1 97,11.1 109.2,46.5 109.4,46.5 121.9,11.1 130.7,11.1 114,55.8 104.3,55.8 	"/>
	<polygon class="st0" points="294.2,5.6 304.4,5.6 318.2,45.6 318.4,45.6 332.5,5.6 342.4,5.6 323.6,56.1 312.6,56.1 	"/>
	<polygon class="st0" points="94.9,55.8 85.9,55.8 73.7,20.4 73.5,20.4 61,55.8 52.2,55.8 68.9,11.1 78.6,11.1 	"/>
	<polygon class="st1" points="172.4,0 156.2,45.3 155.7,45.3 139.8,0 130.2,0 150.5,55.8 161.1,55.8 181.9,0 	"/>
	<rect x="182.8" y="11.1" class="st1" width="8.7" height="44.6"/>
	<path class="st1" d="M218,56.9c-2.8,0-5.4-0.3-7.9-0.9c-2.5-0.6-4.6-1.6-6.5-2.9c-1.8-1.3-3.3-3-4.4-5c-1.1-2-1.7-4.4-1.7-7.2v-0.1
		h8.7v0.1c0,1.7,0.3,3.2,1,4.4c0.6,1.2,1.5,2.2,2.7,3c1.1,0.8,2.4,1.3,3.9,1.7s3.1,0.5,4.8,0.5c1.9,0,3.5-0.2,4.8-0.6
		c1.3-0.4,2.4-0.9,3.2-1.5s1.4-1.3,1.8-2.1c0.4-0.8,0.5-1.6,0.5-2.4c0-1.7-0.4-2.9-1.2-3.7s-1.8-1.4-2.7-1.7
		c-1.7-0.6-3.8-1.1-6.1-1.7c-2.3-0.5-5.2-1.2-8.5-2c-2.1-0.5-3.9-1.2-5.3-2c-1.4-0.8-2.5-1.7-3.3-2.7s-1.4-2.1-1.8-3.2
		c-0.3-1.1-0.5-2.3-0.5-3.5c0-2.2,0.5-4.2,1.5-5.9c1-1.6,2.4-3,4.1-4.1c1.7-1.1,3.6-1.9,5.8-2.4c2.1-0.5,4.3-0.8,6.5-0.8
		c2.5,0,5,0.3,7.2,0.9c2.3,0.6,4.3,1.5,6,2.7s3.1,2.7,4.1,4.5s1.5,3.9,1.5,6.2v0.1h-8.7l0,0c-0.2-2.8-1.3-4.9-3.2-6.1
		s-4.4-1.8-7.3-1.8c-1,0-2,0.1-3.1,0.3c-1,0.2-2,0.5-2.9,0.9s-1.6,1-2.1,1.8c-0.6,0.7-0.8,1.7-0.8,2.8c0,1.6,0.5,2.8,1.6,3.7
		c1.1,0.9,2.5,1.6,4.2,2c0.2,0,0.9,0.2,2.2,0.5s2.7,0.7,4.2,1c1.6,0.4,3.1,0.7,4.6,1.1s2.6,0.6,3.2,0.8c1.6,0.5,3,1.1,4.2,1.9
		c1.2,0.8,2.2,1.7,3,2.7s1.4,2.1,1.8,3.3c0.4,1.2,0.6,2.4,0.6,3.5c0,2.5-0.6,4.7-1.7,6.4c-1.1,1.8-2.6,3.2-4.4,4.4
		c-1.8,1.1-3.9,2-6.2,2.5C222.8,56.6,220.4,56.9,218,56.9"/>
	<rect x="277.9" y="5.6" class="st0" width="8.9" height="50.2"/>
	<rect x="349.8" y="5.6" class="st0" width="8.9" height="50.2"/>
	<path class="st0" d="M406.2,43.4c3.3-3.5,4.9-7.8,4.9-12.7s-1.6-9.2-4.9-12.6c-3.3-3.5-7.4-5.2-12.3-5.2c-4.8,0-8.9,1.8-12.2,5.2
		c-3.3,3.5-4.9,7.7-4.9,12.6s1.6,9.2,4.9,12.7s7.4,5.2,12.2,5.2C398.8,48.5,402.9,46.8,406.2,43.4z M394,4.5
		c7.2,0,13.4,2.6,18.5,7.7s7.7,11.2,7.7,18.5s-2.6,13.4-7.7,18.5s-11.2,7.6-18.5,7.6c-7.2,0-13.4-2.5-18.5-7.6s-7.6-11.3-7.6-18.5
		s2.5-13.4,7.6-18.5C380.5,7.1,386.7,4.5,394,4.5z"/>
	<polygon class="st0" points="474,55.8 467,55.8 438.5,22 438.5,55.8 429.6,55.8 429.6,5.6 436.3,5.6 465.2,40.2 465.2,5.6 474,5.6 
			"/>
</g>
</svg>
