<svg width="24" height="24" viewBox="0 0 24 24" fill="none" xmlns="http://www.w3.org/2000/svg">
	<g clip-path="url(#clip0)">
		<path d="M0.5 23.5H22.5L11.5 1.5L0.5 23.5Z" fill="white" />
		<path d="M11.4083 17.4648L9.9234 18.9498L11.4083 20.4347L12.8932 18.9498L11.4083 17.4648Z" fill="#BAD7F7" />
		<path d="M12 15.5H11L10 9.5H13L12 15.5Z" fill="#BAD7F7" />
		<path d="M4 21L0.5 23.5H22.5L19 21H4Z" fill="#BAD7F7" />
		<path fill-rule="evenodd" clip-rule="evenodd" d="M9.56986 19.3033C9.3746 19.108 9.3746 18.7915 9.56986 18.5962L11.0548 17.1113C11.25 16.916 11.5666 16.916 11.7619 17.1113L13.2468 18.5962C13.442 18.7915 13.442 19.108 13.2468 19.3033L11.7619 20.7882C11.5666 20.9835 11.25 20.9835 11.0548 20.7882L9.56986 19.3033ZM10.6305 18.9498L11.4083 19.7276L12.1861 18.9498L11.4083 18.1719L10.6305 18.9498Z" fill="#1979E4" />
		<path fill-rule="evenodd" clip-rule="evenodd" d="M9.61849 9.17681C9.7135 9.06467 9.85303 9 10 9H13C13.147 9 13.2865 9.06467 13.3815 9.17681C13.4765 9.28896 13.5174 9.43722 13.4932 9.5822L12.4932 15.5822C12.453 15.8233 12.2444 16 12 16H11C10.7556 16 10.547 15.8233 10.5068 15.5822L9.50681 9.5822C9.48264 9.43722 9.52349 9.28896 9.61849 9.17681ZM10.5902 10L11.4236 15H11.5764L12.4098 10H10.5902Z" fill="#1979E4" />
		<path fill-rule="evenodd" clip-rule="evenodd" d="M11.5 1C11.6894 1 11.8625 1.107 11.9472 1.27639L22.9472 23.2764C23.0247 23.4314 23.0164 23.6155 22.9253 23.7629C22.8342 23.9103 22.6733 24 22.5 24H0.500001C0.326712 24 0.165778 23.9103 0.0746751 23.7629C-0.0164282 23.6155 -0.0247102 23.4314 0.0527869 23.2764L11.0528 1.27639C11.1375 1.107 11.3106 1 11.5 1ZM1.30902 23H21.691L11.5 2.61803L1.30902 23Z" fill="#1979E4" />
	</g>
	<defs>
		<clipPath id="clip0">
			<rect width="24" height="24" fill="white" />
		</clipPath>
	</defs>
</svg>