<svg width="24" height="24" viewBox="0 0 24 24" fill="none" xmlns="http://www.w3.org/2000/svg">
<path d="M21.5 18L11.5 23.5L1.5 18V7L11.5 1.5L21.5 7V18Z" fill="white"/>
<path d="M19.5 16.5L11.5 21L3.5 16.5L1.5 18L11.5 23.5L21.5 18L19.5 16.5Z" fill="#BAD7F7"/>
<path d="M11.4084 16.4649L9.92346 17.9499L11.4084 19.4348L12.8933 17.9499L11.4084 16.4649Z" fill="#BAD7F7"/>
<path d="M12 14.5H11L10 6.5H13L12 14.5Z" fill="#BAD7F7"/>
<path fill-rule="evenodd" clip-rule="evenodd" d="M11.259 1.06189C11.4091 0.979369 11.5909 0.979369 11.741 1.06189L21.741 6.56189C21.9007 6.64977 22 6.81765 22 7V18C22 18.1823 21.9007 18.3502 21.741 18.4381L11.741 23.9381C11.5909 24.0206 11.4091 24.0206 11.259 23.9381L1.25904 18.4381C1.09927 18.3502 1 18.1823 1 18V7C1 6.81765 1.09927 6.64977 1.25904 6.56189L11.259 1.06189ZM2 7.29564V17.7044L11.5 22.9294L21 17.7044V7.29564L11.5 2.07064L2 7.29564Z" fill="#1979E4"/>
<path fill-rule="evenodd" clip-rule="evenodd" d="M9.56986 18.3034C9.3746 18.1081 9.3746 17.7916 9.56986 17.5963L11.0548 16.1114C11.25 15.9161 11.5666 15.9161 11.7619 16.1114L13.2468 17.5963C13.442 17.7916 13.442 18.1081 13.2468 18.3034L11.7619 19.7883C11.5666 19.9836 11.25 19.9836 11.0548 19.7883L9.56986 18.3034ZM10.6305 17.9499L11.4083 18.7277L12.1861 17.9499L11.4083 17.172L10.6305 17.9499Z" fill="#1979E4"/>
<path fill-rule="evenodd" clip-rule="evenodd" d="M9.62516 6.1691C9.72008 6.06158 9.85659 6 10 6H13C13.1434 6 13.2799 6.06158 13.3748 6.1691C13.4698 6.27661 13.5139 6.41971 13.4961 6.56202L12.4961 14.562C12.4649 14.8122 12.2522 15 12 15H11C10.7478 15 10.5351 14.8122 10.5039 14.562L9.50386 6.56202C9.48608 6.41971 9.53025 6.27661 9.62516 6.1691ZM10.5664 7L11.4414 14H11.5586L12.4336 7H10.5664Z" fill="#1979E4"/>
</svg>
