<svg width="24" height="24" viewBox="0 0 24 24" fill="none" xmlns="http://www.w3.org/2000/svg">
<path d="M21.5 18L11.5 23.5L1.5 18V7L11.5 1.5L21.5 7V18Z" fill="white"/>
<path d="M19.5 16.5L11.5 21L3.5 16.5L1.5 18L11.5 23.5L21.5 18L19.5 16.5Z" fill="#BAD7F7"/>
<path d="M11.4791 4.53575L9.99414 6.02066L11.4791 7.50557L12.964 6.02066L11.4791 4.53575Z" fill="#BAD7F7"/>
<path d="M12.5 16.5V9.5H8.5V11.5H10.5V16.5H8.5V18.5H14.5V16.5H12.5Z" fill="#BAD7F7"/>
<path fill-rule="evenodd" clip-rule="evenodd" d="M11.259 1.06189C11.4091 0.979369 11.5909 0.979369 11.741 1.06189L21.741 6.56189C21.9007 6.64977 22 6.81765 22 7V18C22 18.1823 21.9007 18.3502 21.741 18.4381L11.741 23.9381C11.5909 24.0206 11.4091 24.0206 11.259 23.9381L1.25904 18.4381C1.09927 18.3502 1 18.1823 1 18V7C1 6.81765 1.09927 6.64977 1.25904 6.56189L11.259 1.06189ZM2 7.29564V17.7044L11.5 22.9294L21 17.7044V7.29564L11.5 2.07064L2 7.29564Z" fill="#1979E4"/>
<path fill-rule="evenodd" clip-rule="evenodd" d="M9.64054 6.37421C9.44528 6.17895 9.44528 5.86237 9.64054 5.66711L11.1254 4.1822C11.3207 3.98694 11.6373 3.98694 11.8325 4.1822L13.3175 5.66711C13.5127 5.86237 13.5127 6.17895 13.3175 6.37421L11.8325 7.85912C11.6373 8.05438 11.3207 8.05438 11.1254 7.85912L9.64054 6.37421ZM10.7012 6.02066L11.479 6.79847L12.2568 6.02066L11.479 5.24285L10.7012 6.02066Z" fill="#1979E4"/>
<path fill-rule="evenodd" clip-rule="evenodd" d="M8 9.5C8 9.22386 8.22386 9 8.5 9H12.5C12.7761 9 13 9.22386 13 9.5V16H14.5C14.7761 16 15 16.2239 15 16.5V18.5C15 18.7761 14.7761 19 14.5 19H8.5C8.22386 19 8 18.7761 8 18.5V16.5C8 16.2239 8.22386 16 8.5 16H10V12H8.5C8.22386 12 8 11.7761 8 11.5V9.5ZM9 10V11H10.5C10.7761 11 11 11.2239 11 11.5V16.5C11 16.7761 10.7761 17 10.5 17H9V18H14V17H12.5C12.2239 17 12 16.7761 12 16.5V10H9Z" fill="#1979E4"/>
</svg>
