<svg width="24" height="24" viewBox="0 0 24 24" fill="none" xmlns="http://www.w3.org/2000/svg">
<path d="M11.5 4.5L4.5 9V15.3L7.5 18.5H8.5V20.5H9.5V22.5H11.5H13.5V20.5H14.5V18.5H15.5L18.5 15.3V9L11.5 4.5Z" fill="white"/>
<path d="M11.5 4.5V18.5H8.5V20.5H14.5V18.5H15.5L18.5 15.2V9L11.5 4.5Z" fill="#BAD7F7"/>
<path fill-rule="evenodd" clip-rule="evenodd" d="M6.61849 11.1768C6.7135 11.0647 6.85303 11 7 11H10.5C10.7761 11 11 11.2239 11 11.5V14H12V11.5C12 11.2239 12.2239 11 12.5 11H16C16.147 11 16.2865 11.0647 16.3815 11.1768C16.4765 11.289 16.5174 11.4372 16.4932 11.5822L15.9932 14.5822C15.953 14.8233 15.7444 15 15.5 15H13V18.5C13 18.7761 12.7761 19 12.5 19C12.2239 19 12 18.7761 12 18.5V15H11V18.5C11 18.7761 10.7761 19 10.5 19C10.2239 19 10 18.7761 10 18.5V15H7.5C7.25558 15 7.04699 14.8233 7.00681 14.5822L6.50681 11.5822C6.48264 11.4372 6.52349 11.289 6.61849 11.1768ZM10 14V12H7.59023L7.92357 14H10ZM13 14H15.0764L15.4098 12H13V14Z" fill="#1979E4"/>
<path fill-rule="evenodd" clip-rule="evenodd" d="M11.5 0C11.7761 0 12 0.223858 12 0.5V2.5C12 2.77614 11.7761 3 11.5 3C11.2239 3 11 2.77614 11 2.5V0.5C11 0.223858 11.2239 0 11.5 0Z" fill="#1979E4"/>
<path fill-rule="evenodd" clip-rule="evenodd" d="M20 11.5C20 11.2239 20.2239 11 20.5 11H22.5C22.7761 11 23 11.2239 23 11.5C23 11.7761 22.7761 12 22.5 12H20.5C20.2239 12 20 11.7761 20 11.5Z" fill="#1979E4"/>
<path fill-rule="evenodd" clip-rule="evenodd" d="M21.1635 2.95674C21.3531 3.1575 21.3441 3.47395 21.1433 3.66356L19.3433 5.36356C19.1426 5.55316 18.8261 5.54412 18.6365 5.34336C18.4469 5.1426 18.4559 4.82615 18.6567 4.63654L20.4567 2.93654C20.6574 2.74694 20.9739 2.75598 21.1635 2.95674Z" fill="#1979E4"/>
<path fill-rule="evenodd" clip-rule="evenodd" d="M18.6464 18.1464C18.8417 17.9512 19.1583 17.9512 19.3536 18.1464L21.1536 19.9464C21.3488 20.1417 21.3488 20.4583 21.1536 20.6536C20.9583 20.8488 20.6417 20.8488 20.4464 20.6536L18.6464 18.8536C18.4512 18.6583 18.4512 18.3417 18.6464 18.1464Z" fill="#1979E4"/>
<path fill-rule="evenodd" clip-rule="evenodd" d="M0 11.5C0 11.2239 0.223858 11 0.5 11H2.5C2.77614 11 3 11.2239 3 11.5C3 11.7761 2.77614 12 2.5 12H0.5C0.223858 12 0 11.7761 0 11.5Z" fill="#1979E4"/>
<path fill-rule="evenodd" clip-rule="evenodd" d="M1.94645 2.9465C2.14171 2.75123 2.45829 2.75123 2.65356 2.9465L4.35356 4.6465C4.54882 4.84176 4.54882 5.15834 4.35356 5.3536C4.15829 5.54886 3.84171 5.54886 3.64645 5.3536L1.94645 3.6536C1.75119 3.45834 1.75119 3.14176 1.94645 2.9465Z" fill="#1979E4"/>
<path fill-rule="evenodd" clip-rule="evenodd" d="M4.34332 18.1365C4.54408 18.3261 4.55312 18.6426 4.36351 18.8433L2.66351 20.6433C2.4739 20.8441 2.15745 20.8531 1.95669 20.6635C1.75593 20.4739 1.74689 20.1574 1.9365 19.9567L3.6365 18.1567C3.8261 17.9559 4.14256 17.9469 4.34332 18.1365Z" fill="#1979E4"/>
<path fill-rule="evenodd" clip-rule="evenodd" d="M11.5 22C11.7761 22 12 22.2239 12 22.5V23.5C12 23.7761 11.7761 24 11.5 24C11.2239 24 11 23.7761 11 23.5V22.5C11 22.2239 11.2239 22 11.5 22Z" fill="#1979E4"/>
<path fill-rule="evenodd" clip-rule="evenodd" d="M11.2296 4.07941C11.3943 3.97353 11.6057 3.97353 11.7704 4.07941L18.7704 8.57941C18.9135 8.67141 19 8.82987 19 9V15.3C19 15.427 18.9516 15.5493 18.8648 15.642L15.8648 18.842C15.7702 18.9428 15.6382 19 15.5 19H7.5C7.3618 19 7.22976 18.9428 7.13523 18.842L4.13523 15.642C4.04835 15.5493 4 15.427 4 15.3V9C4 8.82987 4.08651 8.67141 4.22962 8.57941L11.2296 4.07941ZM5 9.27298V15.1023L7.71662 18H15.2834L18 15.1023V9.27298L11.5 5.0944L5 9.27298Z" fill="#1979E4"/>
<path fill-rule="evenodd" clip-rule="evenodd" d="M8.5 18C8.77614 18 9 18.2239 9 18.5V20H14V18.5C14 18.2239 14.2239 18 14.5 18C14.7761 18 15 18.2239 15 18.5V20.5C15 20.7761 14.7761 21 14.5 21H8.5C8.22386 21 8 20.7761 8 20.5V18.5C8 18.2239 8.22386 18 8.5 18Z" fill="#1979E4"/>
<path fill-rule="evenodd" clip-rule="evenodd" d="M9.5 20C9.77614 20 10 20.2239 10 20.5V22H13V20.5C13 20.2239 13.2239 20 13.5 20C13.7761 20 14 20.2239 14 20.5V22.5C14 22.7761 13.7761 23 13.5 23H9.5C9.22386 23 9 22.7761 9 22.5V20.5C9 20.2239 9.22386 20 9.5 20Z" fill="#1979E4"/>
</svg>
