<svg width="24" height="24" viewBox="0 0 24 24" fill="none" xmlns="http://www.w3.org/2000/svg">
<g clip-path="url(#clip0)">
<path d="M11.4996 1.46904L0.468872 12.4998L11.4996 23.5306L22.5304 12.4998L11.4996 1.46904Z" fill="white"/>
<path d="M0.5 12.5H3L11.5 21L20 12.5H22.5L11.5 23.5L0.5 12.5Z" fill="#BAD7F7"/>
<path d="M11.4084 14.4649L9.92346 15.9499L11.4084 17.4348L12.8933 15.9499L11.4084 14.4649Z" fill="#BAD7F7"/>
<path d="M12 12.5H11L10 6.5H13L12 12.5Z" fill="#BAD7F7"/>
<path fill-rule="evenodd" clip-rule="evenodd" d="M0.115269 12.8534C-0.0799915 12.6581 -0.0799915 12.3415 0.115269 12.1463L11.146 1.11549C11.3413 0.920233 11.6579 0.920233 11.8531 1.11549L22.8839 12.1463C23.0791 12.3415 23.0791 12.6581 22.8839 12.8534L11.8531 23.8841C11.6579 24.0794 11.3413 24.0794 11.146 23.8841L0.115269 12.8534ZM1.17592 12.4998L11.4996 22.8235L21.8232 12.4998L11.4996 2.17614L1.17592 12.4998Z" fill="#1979E4"/>
<path fill-rule="evenodd" clip-rule="evenodd" d="M9.56986 16.3034C9.3746 16.1081 9.3746 15.7916 9.56986 15.5963L11.0548 14.1114C11.25 13.9161 11.5666 13.9161 11.7619 14.1114L13.2468 15.5963C13.442 15.7916 13.442 16.1081 13.2468 16.3034L11.7619 17.7883C11.5666 17.9836 11.25 17.9836 11.0548 17.7883L9.56986 16.3034ZM10.6305 15.9499L11.4083 16.7277L12.1861 15.9499L11.4083 15.172L10.6305 15.9499Z" fill="#1979E4"/>
<path fill-rule="evenodd" clip-rule="evenodd" d="M9.61849 6.17681C9.7135 6.06467 9.85303 6 10 6H13C13.147 6 13.2865 6.06467 13.3815 6.17681C13.4765 6.28896 13.5174 6.43722 13.4932 6.5822L12.4932 12.5822C12.453 12.8233 12.2444 13 12 13H11C10.7556 13 10.547 12.8233 10.5068 12.5822L9.50681 6.5822C9.48264 6.43722 9.52349 6.28896 9.61849 6.17681ZM10.5902 7L11.4236 12H11.5764L12.4098 7H10.5902Z" fill="#1979E4"/>
</g>
<defs>
<clipPath id="clip0">
<rect width="24" height="24" fill="white"/>
</clipPath>
</defs>
</svg>
